<svg width="72" height="72" viewBox="0 0 72 72" fill="none" xmlns="http://www.w3.org/2000/svg">
<g clip-path="url(#clip0_1890_18977)">
<rect width="72" height="72" rx="36" fill="#FFAB00"/>
<path d="M51.6755 20.3555H20.3386V23.4717H51.6755V20.3555Z" fill="#242424"/>
<path d="M22.9699 20.3555H20.3386V23.4717H22.9699V20.3555Z" fill="#3D3938"/>
<path d="M57.4464 50.7881C56.7463 49.5138 55.6746 48.623 54.3856 48.0819C49.6991 46.4485 47.6495 45.7343 45.325 44.9243L41.9273 42.0444V39.5431C38.8145 41.1737 34.7659 41.4837 31.1444 40.0243C30.5445 39.784 30.2033 39.5989 30.0836 39.542L30.0848 42.1594L26.5911 44.9608L24.7909 45.5799H24.787C12.3531 49.9373 15.2169 47.5419 11.7482 63.5314C10.6812 68.6836 10.7519 68.5909 10.7633 69.0617C10.8366 72.2522 13.9746 71.9607 14.0905 71.9995C14.1051 71.9995 20.7367 71.9995 20.5431 71.9995C21.8183 71.9995 56.321 71.9995 57.9225 71.9995C58.0244 71.9549 61.1726 72.2952 61.2498 69.0617C61.2615 68.5721 58.2749 52.3054 57.4464 50.7881Z" fill="white"/>
<path d="M14.4362 68.228C17.8049 49.44 17.5591 50.3189 18.085 49.252C18.4706 48.4723 19.0324 47.8085 19.489 47.4326C17.5509 48.1169 17.726 48.037 17.4837 48.1452C15.638 48.9757 14.3618 50.4573 13.9298 52.5765C10.5441 69.5809 10.6887 68.5164 10.7867 69.4241C11.0902 72.2451 14.0035 71.9627 14.0906 72.0006C14.4441 72.0006 17.2768 72.0006 17.7132 72.0006C15.1835 72.0006 14.1129 70.5147 14.4362 68.228Z" fill="#E1E1E1"/>
<path d="M23.1105 22.7097C20.964 21.9447 18.6337 23.3674 18.6337 25.4427C18.6337 27.5177 20.9635 28.9408 23.1105 28.1758V22.7097Z" fill="#FFE3AA"/>
<path d="M48.9027 22.7097C51.0492 21.9447 53.3795 23.3674 53.3795 25.4427C53.3795 27.5177 51.0496 28.9408 48.9027 28.1758V22.7097Z" fill="#FFEECC"/>
<path d="M18.9566 24.1665C17.6829 26.5412 20.3117 29.1728 23.1103 28.1753V25.6238C21.507 26.1952 19.7007 25.5535 18.9566 24.1665Z" fill="#FFE3AA"/>
<path d="M48.9027 25.6238V28.1753C51.6844 29.1667 54.3374 26.5547 53.0564 24.1665C52.3127 25.5531 50.5065 26.1953 48.9027 25.6238Z" fill="#FFEECC"/>
<path d="M41.9273 42.0449L45.325 44.9248L41.1139 50.9884C40.5337 51.7468 39.3959 51.7599 38.7984 51.0151L35.9576 47.8564L41.9273 42.0449Z" fill="#E1E1E1"/>
<path d="M30.082 42.1602L26.5913 44.9614L30.777 50.9885C31.3572 51.7468 32.495 51.7599 33.0925 51.0152L35.9578 47.8565L30.082 42.1602Z" fill="#E1E1E1"/>
<path d="M41.9273 39.1089C38.9921 40.6463 35.1759 41.0346 31.6435 39.7795C30.756 39.4644 30.1492 39.1391 30.0836 39.1079L30.0847 42.1602L30.0831 42.1614L35.9575 47.8565L41.9271 42.045V39.1089H41.9273Z" fill="#FFE3AA"/>
<path d="M33.7058 45.6733V40.3233C32.3164 40.0761 31.3445 39.7082 30.0837 39.1079L30.0848 42.1602L30.0833 42.1614L33.7058 45.6733Z" fill="#FFE3AA"/>
<path d="M52.5568 59.2363C52.5568 58.636 52.0703 58.1494 51.4699 58.1494C50.8696 58.1494 50.3831 58.636 50.3831 59.2363V72.0003C51.1682 72.0003 51.7813 72.0003 52.5567 72.0003V59.2363H52.5568Z" fill="#E1E1E1"/>
<path d="M21.6302 72.0003V59.2363C21.6302 58.636 21.1436 58.1494 20.5433 58.1494C19.943 58.1494 19.4564 58.636 19.4564 59.2363V72.0003C19.4726 72.0003 20.5439 72.0003 20.5242 72.0003H20.5433H21.6302Z" fill="#E1E1E1"/>
<path d="M41.1808 65.1337L37.602 53.3354C36.4911 53.3354 35.536 53.3354 34.3924 53.3354L30.8137 65.1337C30.6632 65.63 30.7826 66.1687 31.1285 66.555L35.9877 71.9792V72.0003L35.9971 71.9898L36.0065 72.0003V71.9792L40.8657 66.555C41.2119 66.1687 41.3313 65.63 41.1808 65.1337Z" fill="#353535"/>
<path d="M35.9576 47.8561C34.8925 49.0289 38.0475 45.5549 32.8834 51.2414L34.3923 53.335C35.5313 53.335 36.4888 53.335 37.602 53.335L39.0467 51.2595C34.4327 46.1759 36.5208 48.4767 35.9576 47.8561Z" fill="#353535"/>
<path d="M34.3407 66.1648C33.9947 65.7899 33.8753 65.2671 34.0258 64.7854L37.6033 53.3395L37.602 53.3354C36.4911 53.3354 35.5358 53.3354 34.3924 53.3354L30.8137 65.1337C30.6632 65.63 30.7826 66.1689 31.1285 66.555L35.9877 71.9791V72.0003L35.9971 71.9898L36.0065 72.0003V71.9792L37.8294 69.9444L34.3407 66.1648Z" fill="#151515"/>
<path d="M36.4183 51.6896C36.2302 51.4286 36.2504 51.0714 36.467 50.8333L37.5568 49.6348L35.9576 47.8566C34.8925 49.0294 38.0475 45.5554 32.8834 51.2419L34.3923 53.3355C35.5313 53.3355 36.4888 53.3355 37.602 53.3355L37.6032 53.3337L36.4183 51.6896Z" fill="#151515"/>
<path d="M52.401 13.6592H19.6123V19.4515C19.6123 20.1906 20.2115 20.7899 20.9506 20.7899H51.2965C51.9066 20.7899 52.401 20.2954 52.401 19.6854V13.6592Z" fill="#FFB92A"/>
<path d="M23.2351 19.4515V13.6592H19.6123V19.4515C19.6123 20.1908 20.2115 20.7899 20.9506 20.7899H24.5734C23.8343 20.7899 23.2351 20.1906 23.2351 19.4515Z" fill="#FFAB00"/>
<path d="M22.9698 20.1865C22.9741 27.3273 22.8452 29.0473 23.3575 31.0965C26.9836 45.6011 49.0435 43.6023 49.0435 27.9281V20.1865" fill="#FFEECC"/>
<path d="M26.9917 31.0965C26.4794 29.0473 26.6083 27.3273 26.604 20.1865H22.9698C22.9741 27.3273 22.8452 29.0473 23.3575 31.0965C25.1985 38.4609 31.7912 41.5681 37.8362 40.794C32.9885 40.1631 28.4661 36.9943 26.9917 31.0965Z" fill="#FFE3AA"/>
<path d="M22.052 6.51131C20.5494 8.54602 19.6319 11.0122 19.6123 13.6591H52.362C52.2592 -0.237562 30.564 -5.01755 22.052 6.51131Z" fill="#353535"/>
<path d="M37.7985 0.08162C28.4842 -0.777739 19.6742 5.24396 19.6123 13.659H23.2351C23.2901 6.18714 30.2016 0.781229 37.7985 0.08162Z" fill="#151515"/>
<path d="M47.3312 60.3222H43.1954C42.5952 60.3222 42.1085 59.8357 42.1085 59.2353C42.1085 58.635 42.5951 58.1484 43.1954 58.1484H47.3312C47.9314 58.1484 48.4181 58.635 48.4181 59.2353C48.4181 59.8358 47.9314 60.3222 47.3312 60.3222Z" fill="#FFB92A"/>
<path d="M56.5109 48.0819H50.2698C49.1894 48.0819 48.3136 47.2061 48.3136 46.1257C48.3136 45.0452 49.1894 44.1694 50.2698 44.1694H56.5109C57.5913 44.1694 58.4671 45.0452 58.4671 46.1257C58.4671 47.2061 57.5913 48.0819 56.5109 48.0819Z" fill="#FFB92A"/>
<path d="M21.6137 48.0819H15.3726C14.2922 48.0819 13.4164 47.2061 13.4164 46.1257C13.4164 45.0452 14.2922 44.1694 15.3726 44.1694H21.6137C22.6941 44.1694 23.5699 45.0452 23.5699 46.1257C23.5699 47.2061 22.6941 48.0819 21.6137 48.0819Z" fill="#FFB92A"/>
<path d="M55.1296 44.1699H51.6501V48.0825H55.1296V44.1699Z" fill="#FFAB00"/>
<path d="M20.2335 44.1699H16.754V48.0825H20.2335V44.1699Z" fill="#FFAB00"/>
<path d="M35.9718 13.658C37.743 13.658 39.1788 12.2222 39.1788 10.4511C39.1788 8.67994 37.743 7.24414 35.9718 7.24414C34.2007 7.24414 32.7649 8.67994 32.7649 10.4511C32.7649 12.2222 34.2007 13.658 35.9718 13.658Z" fill="#FFB92A"/>
<path d="M35.9721 7.24561C33.5238 7.24308 31.955 9.90876 33.1946 12.0557C34.4341 14.2025 37.5271 14.1767 38.749 12.0553C37.6419 12.0541 34.7405 9.38409 35.9721 7.24561Z" fill="#FFAB00"/>
<path d="M46.7031 7.19922H42.4144C42.0346 7.19922 41.7221 7.4875 41.6785 7.8648C41.4537 9.81386 40.2527 11.4652 38.5776 12.3194C38.4305 12.5241 38.2601 12.7107 38.0698 12.8755C42.3133 12.596 46.7536 11.386 47.4283 8.09275C47.5228 7.63206 47.1733 7.19922 46.7031 7.19922Z" fill="#FFB92A"/>
<path d="M41.6787 7.86494C41.4538 9.814 40.2529 11.4654 38.5777 12.3195C38.4468 12.5018 38.2964 12.6687 38.131 12.8196C41.1214 12.4544 44.096 11.2028 44.5705 8.09275C44.6408 7.63206 44.3806 7.19922 44.0305 7.19922H42.4146C42.0346 7.19922 41.7223 7.48764 41.6787 7.86494Z" fill="#FFAB00"/>
<path d="M33.3656 12.319C31.7116 11.4753 30.5199 9.85478 30.2738 7.93764C30.2194 7.51323 29.8514 7.19922 29.4235 7.19922H25.3899C24.8269 7.19922 24.419 7.73106 24.5574 8.27697C25.3574 11.4316 29.7105 12.6013 33.8738 12.8758C33.6834 12.7107 33.5128 12.524 33.3656 12.319Z" fill="#FFB92A"/>
<path d="M27.1896 8.27697C27.0904 7.73106 27.3829 7.19922 27.7869 7.19922H25.3899C24.8269 7.19922 24.419 7.73106 24.5574 8.27697C25.3574 11.4315 29.7105 12.6013 33.8738 12.8757C30.8868 12.6013 27.7637 11.4315 27.1896 8.27697Z" fill="#FFAB00"/>
<path d="M44.6139 25.0679H27.3994C24.9529 25.0679 22.9698 23.9404 22.9698 21.4941V20.5083H49.0436V21.4941C49.0434 23.9404 47.0603 25.0679 44.6139 25.0679Z" fill="#353535"/>
<path d="M30.2153 21.4941V20.5083H22.9697V21.4941C22.9697 23.9405 24.953 25.0679 27.3993 25.0679H34.6448C32.1985 25.0679 30.2153 23.9405 30.2153 21.4941Z" fill="#151515"/>
<path d="M19.6123 17.2246V19.4515C19.6123 20.1908 20.2115 20.7899 20.9506 20.7899H51.2965C51.9066 20.7899 52.401 20.2953 52.401 19.6854V17.2246H19.6123Z" fill="#FFAB00"/>
<path d="M23.2351 19.4515V17.2246H19.6123V19.4515C19.6123 20.1908 20.2115 20.7899 20.9506 20.7899H24.5734C23.8343 20.7899 23.2351 20.1907 23.2351 19.4515Z" fill="#D48E00"/>
<g clip-path="url(#clip1_1890_18977)">
<path d="M44.6962 34.107C43.8292 33.7851 42.5468 33.1914 41.5912 32.2421C40.0616 30.7226 37.6727 29.6381 36.0778 30.9898C36.0478 31.0153 36.0224 31.0449 36 31.0763C35.9776 31.0449 35.9523 31.0153 35.9222 30.9898C34.3273 29.6383 31.9385 30.7226 30.4089 32.2421C29.4533 33.1914 28.1708 33.7851 27.3038 34.107C26.9268 34.2468 26.8925 34.7622 27.2468 34.9518C31.8865 37.4358 35.207 34.8121 35.9374 34.1462C35.961 34.1248 35.9818 34.1011 36 34.0759C36.0185 34.1012 36.0392 34.1248 36.0627 34.1462C36.7931 34.8121 40.1136 37.4358 44.7533 34.9518C45.1074 34.7622 45.0732 34.2468 44.6962 34.107Z" fill="#242424"/>
<path d="M35.9824 32.1603C35.4985 32.1603 35.0281 32.308 34.6266 32.5763C33.0835 33.607 30.4337 34.8729 27.001 34.5744C27.011 34.7233 27.0916 34.8687 27.2467 34.9517C31.8863 37.4358 35.2069 34.812 35.9373 34.1461C35.9607 34.1248 35.9816 34.101 35.9999 34.0759C36.0183 34.1012 36.0391 34.1248 36.0625 34.1461C36.7929 34.812 40.1135 37.4358 44.7531 34.9517C44.9082 34.8687 44.9888 34.7233 44.9988 34.5744C41.5728 34.8723 38.9266 33.612 37.3821 32.5823C36.6793 32.1136 35.9672 32.158 35.9824 32.1603Z" fill="#151515"/>
</g>
</g>
<defs>
<clipPath id="clip0_1890_18977">
<rect width="72" height="72" rx="36" fill="white"/>
</clipPath>
<clipPath id="clip1_1890_18977">
<rect width="18" height="5.625" fill="white" transform="translate(27 30.375)"/>
</clipPath>
</defs>
</svg>
