<svg width="72" height="72" viewBox="0 0 72 72" fill="none" xmlns="http://www.w3.org/2000/svg">
<rect width="72" height="72" rx="36" fill="#D4E4FF"/>
<path d="M61.5121 68.1634C61.4613 67.9087 58.3688 52.3726 58.3348 52.213C57.9634 50.4147 56.9571 49.0371 55.4801 48.1496C54.5947 47.6155 54.092 47.5304 53.5178 47.354C53.9214 47.495 46.1171 44.7674 42.9723 43.6683C42.3499 43.4549 41.9319 42.8696 41.9319 42.2116V38.9824C37.8927 41.0021 33.6571 40.8745 29.8975 39.0398V42.2116C29.8975 42.8696 29.4794 43.455 28.857 43.6683C28.4137 43.8203 30.4626 43.1178 24.5219 45.1547H24.5178C24.518 45.1552 24.5183 45.1556 24.5183 45.1556L24.5178 45.1563L18.3159 47.354C18.0295 47.4385 17.464 47.6054 17.4999 47.5947C16.0245 48.145 14.7451 49.19 14.0282 50.6512C13.5319 51.6578 13.6792 51.3043 11.271 63.3931C10.3793 68.0106 10.1824 68.347 10.2939 69.3786C10.6043 72.2623 13.5703 71.9614 13.6506 71.9964C19.3378 71.9964 36.4755 71.9964 35.9357 71.9964C35.9955 71.9964 38.5585 71.9964 38.3992 71.9964C42.3595 71.9964 56.3991 71.9964 58.1823 71.9964C58.2141 71.9857 62.0938 72.281 61.5121 68.1634Z" fill="#2979FF"/>
<path d="M13.9436 68.1636L17.1207 50.7642C17.0767 50.9756 17.3566 48.4369 19.7449 46.8477C17.0776 47.7928 17.9043 47.4147 17.0843 47.7661C15.5365 48.4651 14.3361 49.6528 13.7442 51.3266C13.5074 51.9988 13.6609 51.4078 11.2712 63.3932C10.3795 68.0107 10.1827 68.3475 10.2941 69.3787C10.6045 72.2624 13.5705 71.9615 13.6508 71.9965C14.0043 71.9965 16.8367 71.9965 17.273 71.9965C14.7173 71.9966 13.613 70.5021 13.9436 68.1636Z" fill="#2265D4"/>
<path d="M20.2063 71.9969C18.1381 71.9969 15.7559 71.9969 13.6506 71.9969C13.5667 71.9602 10.1859 72.2998 10.2704 68.7755C10.2888 68.024 10.3829 67.9924 11.271 63.3935L11.3223 63.1357H20.2063V71.9969Z" fill="#FFE3AA"/>
<path d="M51.6743 71.9969C53.7424 71.9969 56.1246 71.9969 58.2299 71.9969C58.3139 71.9602 61.6947 72.2998 61.6101 68.7755C61.5917 68.024 61.4976 67.9924 60.6096 63.3935L60.5583 63.1357H51.6743V71.9969Z" fill="#FFE3AA"/>
<path d="M14.8616 63.1348H11.3224L11.2711 63.3924C10.3798 68.0073 10.2889 68.0218 10.2705 68.7744C10.1863 72.2871 13.5841 71.9667 13.6507 71.9958C14.0043 71.9958 16.8366 71.9958 17.2729 71.9958C14.919 71.9958 13.8452 70.7575 13.8927 68.7744C13.8984 68.5442 13.9841 68.0628 14.8616 63.1348Z" fill="#FFE3AA"/>
<path d="M29.8974 38.4829C29.8974 47.4908 29.8974 37.4568 29.8975 44.5516H29.9013V44.7684C29.9013 46.2097 30.8219 47.4908 32.1885 47.9484C34.3816 48.6827 37.1975 48.7664 39.6406 47.9484C41.0073 47.4908 41.9277 46.2098 41.9277 44.7684V44.5516H41.9315C41.9315 43.1398 41.9317 39.2381 41.9317 38.4829C38.0328 40.5618 33.6365 40.4767 29.8974 38.4829Z" fill="#FFEECC"/>
<path d="M33.5244 45.7559H33.5198C33.5195 38.2143 33.5196 40.7271 33.5195 40.2005C32.2693 39.9499 31.0503 39.5196 29.8973 38.9048C29.8973 47.9127 29.8973 37.4568 29.8974 44.5516H29.9012V44.7684C29.9012 46.2097 30.8217 47.4908 32.1883 47.9484C32.8642 48.1747 33.5779 48.3382 34.3188 48.4327C33.3977 47.182 33.5385 45.8517 33.5244 45.7559Z" fill="#FFE3AA"/>
<path d="M20.2063 59.5811C19.6061 59.5811 19.1196 60.0675 19.1196 60.6678V71.9967C19.8733 71.9967 20.4839 71.9967 21.2929 71.9967V60.6678C21.2931 60.0675 20.8065 59.5811 20.2063 59.5811Z" fill="#2265D4"/>
<path d="M51.6743 59.5811C52.2745 59.5811 52.761 60.0675 52.761 60.6678V71.9967C52.0073 71.9967 51.3967 71.9967 50.5877 71.9967V60.6678C50.5875 60.0675 51.0741 59.5811 51.6743 59.5811Z" fill="#4D8FFF"/>
<path d="M35.5869 0.0137203C26.2271 0.0494391 18.325 7.69045 18.325 17.3981V23.9864H53.0985C53.0985 17.743 53.0985 19.7156 53.0985 14.1301C53.0985 7.39794 48.9567 5.84713 48.9567 5.84713C43.8059 -0.503921 35.5938 0.0135797 35.5938 0.0135797" fill="#242424"/>
<path d="M37.9359 0.120868C27.328 -1.08668 18.6956 6.9198 18.3398 16.7163C18.3124 17.4207 18.3308 17.1571 18.325 23.9897H22.4668V17.4014C22.4668 8.40817 29.2745 1.07149 37.9359 0.120868Z" fill="#151515"/>
<path d="M22.6074 21.923C20.4266 21.1459 18.0591 22.5911 18.0591 24.6996C18.0591 26.8076 20.4263 28.2535 22.6074 27.4762V21.923Z" fill="#FFE3AA"/>
<path d="M48.816 21.9225C50.9969 21.1454 53.3643 22.5906 53.3643 24.6991C53.3643 26.8071 50.9971 28.253 48.816 27.4758V21.9225Z" fill="#FFEECC"/>
<path d="M18.3779 23.4243C17.1039 25.8426 19.7861 28.4832 22.6076 27.4778V24.9242C20.9621 25.5103 19.1223 24.8379 18.3779 23.4243Z" fill="#FFE3AA"/>
<path d="M48.8163 24.9237V27.4773C51.6376 28.4827 54.3198 25.8423 53.046 23.4238C52.5133 24.4355 50.4623 25.5101 48.8163 24.9237Z" fill="#FFEECC"/>
<path d="M48.3591 16.4182C48.6969 16.4508 48.9568 16.7311 48.9568 17.0704C48.9568 28.2219 48.9641 27.3799 48.9381 27.8984C48.7662 31.2902 47.3157 34.4044 44.9564 36.7063C36.689 44.7672 22.8931 39.0506 22.4781 27.7435C22.4587 27.2449 22.4668 21.4692 22.4668 21.4855C22.4668 18.8886 24.7716 16.9072 27.3419 17.2783C31.3901 17.8626 37.299 17.6356 42.4549 13.2284C42.9846 12.7756 43.7887 12.9219 44.127 13.5312C44.7659 14.6816 46.0361 16.1941 48.3591 16.4182Z" fill="#FFEECC"/>
<path d="M26.1021 27.7424C26.0855 27.3149 26.089 19.491 26.0904 17.2808C24.0686 17.5841 22.4669 19.3198 22.4669 21.4845C22.4669 21.4682 22.4588 27.2439 22.4782 27.7424C22.784 36.0792 30.3641 41.3756 37.6392 40.3527C31.6657 39.5268 26.357 34.691 26.1021 27.7424Z" fill="#FFE3AA"/>
</svg>
