<svg width="951" height="256" viewBox="0 0 951 256" fill="none" xmlns="http://www.w3.org/2000/svg">
<path d="M647.675 80.4412H673.275V190.155H647.675V80.4412Z" fill="white"/>
<path d="M549.712 190.155V80.4412H599.45C622.562 80.4412 637.923 95.9478 637.923 119.792C637.923 142.906 622.562 158.411 599.45 158.411H575.312V190.155H549.712ZM575.312 132.811H599.157C607.056 132.811 612.323 127.399 612.323 119.354C612.323 111.308 607.056 106.041 599.157 106.041H575.312V132.811Z" fill="white"/>
<path d="M741.611 135.298C741.611 105.017 766.187 80.4412 796.468 80.4412C826.603 80.4412 851.179 105.017 851.179 135.298C851.179 165.579 826.603 190.155 796.468 190.155C766.187 190.155 741.611 165.579 741.611 135.298ZM796.468 164.556C812.56 164.556 825.579 151.39 825.579 135.298C825.579 119.207 812.56 106.188 796.468 106.188C780.376 106.188 767.21 119.207 767.21 135.298C767.21 151.39 780.377 164.556 796.468 164.556Z" fill="white"/>
<path d="M822.96 80.4412V80.4451C824.283 81.0897 825.571 81.7923 826.839 82.5281C836.925 87.8997 845.3 96.0825 850.906 106.041H881.205V190.155H906.806V106.041H940.598V80.4412H822.96Z" fill="white"/>
<path d="M743.014 164.556H708.627V80.4412H683.027V190.155H769.918C758.519 184.617 749.098 175.628 743.014 164.556Z" fill="white"/>
<path d="M291.504 190.009C270 190.009 249.227 178.599 249.081 155.924H272.633C277.168 166.165 285.213 169.822 292.382 169.822C306.279 169.822 316.519 155.779 290.334 148.025C271.17 142.32 249.081 134.567 249.081 111.308C249.081 90.5345 268.83 80.4412 289.017 80.4412C310.667 80.4412 332.756 91.8512 332.903 114.38H309.351C295.6 83.6592 254.639 111.893 291.065 121.841C310.813 127.399 332.903 135.005 332.903 159.143C332.903 179.916 311.838 190.009 291.504 190.009Z" fill="white"/>
<path d="M420.626 80.4412V106.041H368.255V122.425H411.468V148.025H368.255V164.556H420.626V190.155H342.655V80.4412H420.626Z" fill="white"/>
<path d="M433.092 138.519C438.203 136.957 443.487 135.683 450.225 134.389C452.163 134.016 454.11 133.665 456.047 133.32C456.16 131.568 456.426 129.804 456.872 128.044C459.976 115.8 470.479 107.388 482.396 106.247C482.687 104.303 482.985 102.346 483.305 100.398C484.42 93.6221 485.551 88.3069 486.972 83.162C487.227 82.2376 487.514 81.3369 487.788 80.4277C462.283 79.2176 438.573 96.0485 432.057 121.753C430.559 127.665 430.099 133.594 430.535 139.359C431.386 139.078 432.227 138.784 433.092 138.519Z" fill="white"/>
<path d="M508.166 88.5369C506.964 93.7415 505.425 98.9541 503.177 105.436C502.543 107.266 501.887 109.094 501.229 110.908C511.313 117.533 516.584 130.026 513.451 142.387C512.997 144.177 512.379 145.884 511.63 147.504C513.113 148.685 514.601 149.876 516.07 151.08C521.38 155.431 525.419 159.068 529.167 162.876C529.849 163.569 530.495 164.277 531.155 164.98C534.314 160.093 536.757 154.629 538.266 148.677C544.809 122.868 531.845 96.6721 508.762 85.688C508.567 86.637 508.386 87.584 508.166 88.5369Z" fill="white"/>
<path d="M513.92 178.542C510.025 174.914 506.279 170.975 501.773 165.77C500.529 164.334 499.298 162.879 498.076 161.428C492.076 164.414 485.035 165.365 478.043 163.592C470.99 161.804 465.185 157.549 461.3 151.986C459.476 152.704 457.638 153.422 455.798 154.116C449.373 156.539 444.204 158.218 439.036 159.558C438.156 159.787 437.28 159.977 436.403 160.185C443.34 173.744 455.84 184.373 471.752 188.407C487.552 192.412 503.534 189.038 516.063 180.461C515.348 179.824 514.627 179.201 513.92 178.542Z" fill="white"/>
<path d="M494.183 137.961C494.226 137.822 494.264 137.684 494.3 137.542C495.201 133.989 493.961 130.397 491.39 128.125C491.186 125.788 491.59 123.559 492.926 119.767C494.836 114.337 496.814 109.14 498.644 103.859C500.475 98.5789 502.159 93.2164 503.489 87.4576C504.818 81.6985 505.79 75.5407 506.197 68.6759C506.2 67.7412 505.801 67.3298 504.917 67.1056L502.551 66.506L500.184 65.906C499.302 65.6823 498.755 65.8538 498.313 66.6773C495.398 72.9064 493.321 78.784 491.746 84.4806C490.172 90.1777 489.098 95.6949 488.191 101.209C487.285 106.723 486.549 112.24 485.642 117.92C485.01 121.88 484.267 124.054 482.983 126.007C479.653 126.786 476.864 129.35 475.965 132.894C475.927 133.045 475.893 133.193 475.862 133.342C473.941 134.688 471.808 135.455 467.854 136.195C462.197 137.254 456.707 138.141 451.221 139.196C445.731 140.25 440.244 141.473 434.591 143.201C428.94 144.932 423.122 147.165 416.974 150.247C416.162 150.712 416.005 151.264 416.254 152.14L416.917 154.49L417.58 156.838C417.829 157.714 418.25 158.104 419.184 158.074C426.037 157.482 432.165 156.343 437.885 154.858C443.606 153.374 448.922 151.546 454.151 149.573C459.379 147.601 464.525 145.48 469.897 143.425C473.644 141.993 475.898 141.55 478.229 141.685C479.425 142.962 480.987 143.924 482.809 144.385C484.639 144.85 486.481 144.745 488.146 144.184C490.271 145.176 492 146.639 494.619 149.692C498.362 154.063 501.877 158.374 505.534 162.599C509.192 166.825 512.993 170.965 517.318 174.995C521.64 179.025 526.485 182.946 532.227 186.731C533.036 187.202 533.592 187.06 534.226 186.408L535.93 184.66L537.632 182.91C538.268 182.257 538.393 181.698 537.9 180.902C533.962 175.263 529.912 170.528 525.765 166.314C521.62 162.102 517.379 158.413 513.054 154.871C508.734 151.33 504.325 147.934 499.859 144.308C496.744 141.78 495.232 140.049 494.183 137.961Z" fill="white"/>
<path d="M113.967 10.9714C113.947 8.97154 113.945 8.97155 113.944 8.97157L113.939 8.97162L113.926 8.9718L113.879 8.97257C113.839 8.97329 113.783 8.97449 113.71 8.97643C113.563 8.9803 113.351 8.98716 113.078 8.99917C112.53 9.02319 111.735 9.06787 110.725 9.15068C108.704 9.31627 105.82 9.6346 102.328 10.2462C95.3513 11.4684 85.9162 13.8677 76.1027 18.5842C56.5446 27.9841 35.5501 46.5751 29.5414 83.0441C25.6293 86.3053 23.0745 90.9264 22.4373 96.0091L22.4373 96.0092C22.1239 98.5106 22.1368 104.208 22.2146 109.1C22.254 111.585 22.3118 113.923 22.3597 115.639C22.377 116.258 22.393 116.796 22.4064 117.232L12.5189 122.748L11.8758 123.106L11.6189 123.796L13.4932 124.494C11.6189 123.796 11.6185 123.798 11.6181 123.799L11.617 123.801L11.6143 123.809L11.6064 123.831C11.5999 123.848 11.5913 123.872 11.5806 123.902C11.5593 123.963 11.5297 124.048 11.493 124.158C11.4197 124.377 11.3181 124.693 11.1974 125.102C10.9561 125.919 10.6385 127.106 10.319 128.626C9.68026 131.664 9.03303 136.035 8.97557 141.43C8.86053 152.23 11.1107 167.111 20.4849 183.58L20.915 184.336L21.7611 184.537L36.8951 188.129L37.2439 190.379C37.2447 190.395 37.2456 190.413 37.2466 190.432C37.2528 190.549 37.2638 190.712 37.2831 190.915C37.3216 191.32 37.3935 191.891 37.5275 192.595C37.7954 194.005 38.3125 195.956 39.311 198.209C41.3162 202.731 45.2359 208.402 52.8395 213.301C56.9598 215.956 60.9046 219.424 64.8385 222.883C66.2735 224.144 67.7071 225.405 69.1473 226.624C74.1127 230.827 80.8722 235.9 88.58 239.93C96.2748 243.953 105.035 247 113.967 247C122.833 247 131.529 243.998 139.182 240.02C146.847 236.035 153.583 231.009 158.564 226.812C159.833 225.742 161.108 224.646 162.39 223.545C166.844 219.716 171.372 215.823 176.001 212.752C183.304 207.906 187.286 202.402 189.437 198.047C190.51 195.875 191.123 193.999 191.47 192.646C191.643 191.97 191.751 191.423 191.815 191.034C191.848 190.84 191.869 190.685 191.884 190.573C191.89 190.521 191.895 190.478 191.899 190.445L192.262 188.104L206.208 184.528L207.03 184.317L207.449 183.58C216.823 167.111 219.074 152.23 218.958 141.43C218.901 136.035 218.254 131.664 217.615 128.626C217.296 127.106 216.978 125.919 216.737 125.102C216.616 124.693 216.514 124.377 216.441 124.158C216.404 124.048 216.375 123.963 216.353 123.902C216.343 123.872 216.334 123.848 216.328 123.831L216.32 123.809L216.317 123.801L216.316 123.799C216.316 123.798 216.315 123.796 214.441 124.494L216.315 123.796L216.058 123.106L215.415 122.748L205.528 117.232C205.541 116.796 205.557 116.258 205.574 115.639C205.622 113.923 205.68 111.585 205.719 109.1C205.797 104.208 205.81 98.5106 205.497 96.0092L205.497 96.0091C204.86 90.9264 202.305 86.3053 198.393 83.0441C192.384 46.5751 171.389 27.9841 151.831 18.5842C142.018 13.8677 132.583 11.4684 125.606 10.2462C122.114 9.6346 119.23 9.31627 117.209 9.15068C116.199 9.06787 115.404 9.02319 114.856 8.99917C114.583 8.98716 114.371 8.9803 114.224 8.97643C114.151 8.97449 114.095 8.97329 114.055 8.97257L114.008 8.9718L113.995 8.97162L113.99 8.97157C113.989 8.97155 113.987 8.97154 113.967 10.9714ZM113.967 10.9714L113.947 8.97154L113.967 8.97133L113.987 8.97154L113.967 10.9714Z" fill="#282A42" stroke="white" stroke-width="4"/>
<path fill-rule="evenodd" clip-rule="evenodd" d="M22.4335 128.901L29.7997 125.66C29.7997 125.66 30.454 146.165 34.3748 158.5C37.2568 167.567 39.8478 180.127 39.8478 180.127L30.454 177.637C17.7599 150.246 22.4335 128.901 22.4335 128.901ZM205.5 128.901L198.134 125.66C198.134 125.66 197.48 146.165 193.559 158.5C190.677 167.567 188.086 180.127 188.086 180.127L197.48 177.637C210.174 150.246 205.5 128.901 205.5 128.901Z" fill="white"/>
<path d="M49.6815 124.159C48.0771 139.023 48.5724 146.986 48.5724 146.986L51.1933 166.052C51.1933 166.052 55.125 192.425 58.4012 200.369C61.6775 208.313 75.7656 221.341 88.8706 228.967C91.7063 230.618 94.4899 232.091 97.1111 233.388C107.718 238.634 120.216 238.634 130.823 233.388C133.444 232.091 136.228 230.618 139.064 228.967C152.169 221.341 166.257 208.313 169.533 200.369C172.809 192.425 176.741 166.052 176.741 166.052L179.362 146.986C179.362 146.986 179.857 139.023 178.253 124.159H49.6815Z" fill="white"/>
<path d="M80.0586 223.137L78.6321 219.92C78.6321 219.92 66.1792 204.105 64.3504 199.671C63.1857 196.847 57.0507 184.445 54.801 175.81C54.0332 172.863 52.7945 170.081 51.4798 167.329C51.1214 166.579 51.2015 166.052 51.2015 166.052C51.2015 166.052 55.1331 192.425 58.4094 200.369C60.9516 206.533 70.0078 215.749 80.0586 223.137Z" fill="white"/>
<path d="M147.874 223.137L149.3 219.92C149.3 219.92 161.753 204.105 163.582 199.671C164.738 196.866 170.845 184.613 173.105 175.986C173.892 172.983 175.147 170.144 176.467 167.329C176.818 166.579 176.731 166.052 176.731 166.052C176.731 166.052 172.799 192.425 169.523 200.369C166.98 206.533 157.924 215.749 147.874 223.137Z" fill="white"/>
<path d="M127.331 166.261C124.455 164.712 121.41 164.546 118.873 167.146C116.335 169.745 113.967 170.022 113.967 170.022C113.967 170.022 111.599 169.745 109.062 167.146C106.524 164.546 103.479 164.712 100.604 166.261L100.042 170.077L113.967 173.649L127.892 170.077L127.331 166.261Z" fill="white"/>
<path d="M95.4148 210.676C95.4148 210.676 99.5609 227.799 114.257 227.799C128.952 227.799 132.519 210.676 132.519 210.676C132.519 210.676 116.28 231.345 95.4148 210.676Z" fill="white"/>
<path d="M145.606 182.655H82.3274V187.585H145.606V182.655Z" fill="white"/>
<path d="M79.8848 184.65C82.4177 194.658 98.4761 210.676 113.967 210.676C129.457 210.676 145.516 194.658 148.049 184.65C140.938 185.048 86.995 185.048 79.8848 184.65Z" fill="#282A42"/>
<path d="M85.3753 180.649C83.2585 180.924 81.3704 181.848 80.0244 182.691C78.546 183.618 77.7034 185.28 77.7844 187.023C77.8898 189.297 78.5404 192.635 81.0226 195.727C80.0252 189.659 83.6898 185.14 86.3222 182.754C87.1878 181.969 86.5341 180.498 85.3753 180.649Z" fill="#282A42"/>
<path d="M150.15 187.023C150.231 185.28 149.388 183.618 147.91 182.692C146.564 181.848 144.676 180.924 142.559 180.649C141.4 180.498 140.746 181.969 141.612 182.754C144.244 185.141 147.909 189.659 146.911 195.727C149.393 192.635 150.044 189.297 150.15 187.023Z" fill="#282A42"/>
<path d="M88.791 189.521C88.791 189.521 97.6749 196.052 113.967 196.052C130.259 196.052 139.143 189.521 139.143 189.521H88.791Z" fill="white"/>
<path d="M113.967 215.772C100.357 215.772 95.4148 210.676 95.4148 210.676C95.4148 210.676 100.074 222.516 113.967 222.516C127.86 222.516 132.519 210.676 132.519 210.676C132.519 210.676 127.577 215.772 113.967 215.772Z" fill="#282A42"/>
<path d="M162.836 83.8346C145.414 71.3593 125.693 69.2489 113.967 69.3073C102.241 69.2489 82.5204 71.3593 65.0978 83.8346C41.1357 100.992 41.7247 119.157 42.1958 123.195C43.1758 122.004 44.2811 120.66 45.2414 119.49C45.5327 113.001 48.601 99.4856 66.9617 86.3388C83.4961 74.4998 102.651 72.4575 113.967 72.4682C125.283 72.4575 144.438 74.4998 160.973 86.3388C179.333 99.4856 182.401 113.001 182.693 119.49C183.653 120.66 184.758 122.004 185.738 123.195C186.209 119.157 186.798 100.992 162.836 83.8346Z" fill="white"/>
<path d="M113.967 143.507C149.507 143.507 178.317 130.76 178.317 115.035C178.317 99.3098 149.507 86.5623 113.967 86.5623C78.4275 86.5623 49.6169 99.3098 49.6169 115.035C49.6169 130.76 78.4275 143.507 113.967 143.507Z" fill="white"/>
<path d="M113.967 146.352C141.886 146.352 164.519 133.875 164.519 118.485C164.519 103.094 141.886 90.6169 113.967 90.6169C86.0477 90.6169 63.4146 103.094 63.4146 118.485C63.4146 133.875 86.0477 146.352 113.967 146.352Z" fill="white"/>
<path d="M193.331 118.866C191.004 107.964 185.08 100.336 176.646 97.3889L176.145 97.2132C175.345 96.9328 174.503 96.7987 173.654 96.8086L160.259 97.0048C151.784 97.1264 143.301 97.2512 134.775 97.3979H93.012C84.5648 97.2527 76.1187 97.126 67.6713 97.0048L54.2797 96.8086C53.4494 96.8104 52.5899 96.9333 51.789 97.2132L51.296 97.3859C42.8577 100.332 36.9301 107.961 34.6033 118.866C32.0294 130.93 34.2707 147.715 43.5357 156.456C48.2912 160.942 56.8395 163.418 68.943 163.815C69.7733 163.842 70.5895 163.856 71.3939 163.856C84.1895 163.856 93.9885 160.411 102.903 152.84C102.903 152.84 108.448 147.659 113.967 147.659C119.487 147.659 125.031 152.84 125.031 152.84C133.948 160.412 143.746 163.856 156.542 163.856C157.347 163.856 158.164 163.842 158.992 163.815C171.096 163.418 179.644 160.942 184.401 156.455C193.663 147.714 195.905 130.929 193.331 118.866Z" fill="#282A42"/>
<path d="M189.871 110.199H38.0636C30.542 110.199 24.4446 116.296 24.4446 123.818V123.818C24.4446 131.339 30.542 137.437 38.0636 137.437H189.871C197.392 137.437 203.49 131.339 203.49 123.818C203.49 116.296 197.392 110.199 189.871 110.199Z" fill="#282A42"/>
<path fill-rule="evenodd" clip-rule="evenodd" d="M95.7207 104.586L95.6588 104.585C81.968 104.341 68.2756 104.166 54.5841 103.96L54.0525 103.952L53.5505 104.127C37.3069 109.799 37.353 140.891 48.3459 151.263C52.8415 155.504 63.1362 156.48 69.0913 156.675C80.3325 157.042 89.5228 154.771 98.2163 147.389C101.59 144.524 104.491 141.165 106.802 137.39C109.516 132.956 111.117 127.71 111.111 122.499C111.104 117.711 109.706 112.822 106.349 109.287C103.537 106.326 99.8293 104.827 95.7824 104.59L95.7207 104.586Z" fill="white"/>
<path fill-rule="evenodd" clip-rule="evenodd" d="M132.214 104.586L132.276 104.585C145.967 104.341 159.659 104.166 173.351 103.96L173.882 103.952L174.384 104.127C190.628 109.799 190.581 140.891 179.589 151.263C175.093 155.504 164.799 156.48 158.843 156.675C147.602 157.042 138.412 154.771 129.718 147.389C126.345 144.524 123.443 141.164 121.132 137.39C118.418 132.956 116.817 127.71 116.825 122.499C116.83 117.711 118.228 112.822 121.586 109.287C124.398 106.326 128.105 104.827 132.152 104.59L132.214 104.586Z" fill="white"/>
<path d="M94.7322 106.569L94.7001 106.568L94.6685 106.567C81.2586 106.363 67.8489 106.159 54.4392 105.955L54.1772 105.951L53.9306 106.037C39.0612 111.229 39.4202 140.402 49.3526 149.772C53.3956 153.587 63.3045 154.499 68.7191 154.676C69.4618 154.7 70.194 154.713 70.917 154.713C80.5937 154.713 88.5605 152.461 96.2542 145.927C99.4493 143.214 102.178 140.055 104.365 136.483C106.882 132.371 108.377 127.493 108.371 122.658C108.365 118.349 107.134 113.906 104.107 110.718C101.609 108.088 98.3245 106.78 94.7322 106.569Z" fill="#282A42"/>
<path d="M174.005 106.037L173.758 105.951L173.496 105.955C160.086 106.159 146.677 106.363 133.267 106.567L133.235 106.568L133.203 106.569C129.611 106.78 126.326 108.088 123.828 110.718C120.801 113.906 119.57 118.349 119.564 122.658C119.558 127.493 121.053 132.371 123.57 136.483C125.757 140.055 128.486 143.214 131.681 145.927C139.375 152.461 147.342 154.713 157.018 154.713C157.741 154.713 158.473 154.7 159.216 154.676C164.631 154.499 174.54 153.587 178.583 149.772C188.515 140.402 188.874 111.229 174.005 106.037Z" fill="#282A42"/>
<path d="M126.363 158.62C125.006 159.002 124.412 160.552 125.111 161.776C126.173 163.634 127 166.268 127 168.61C125.863 168.51 122.613 169.465 122.613 169.465C122.613 169.465 122.856 167.507 124.238 166.805C122.369 166.203 120.175 168.61 120.175 168.61C120.175 168.61 117.822 172.215 113.967 172.22C110.112 172.215 107.759 168.61 107.759 168.61C107.759 168.61 105.565 166.203 103.696 166.805C105.077 167.507 105.321 169.465 105.321 169.465C105.321 169.465 102.071 168.51 100.934 168.61C100.934 166.268 101.761 163.634 102.822 161.776C103.522 160.552 102.928 159.002 101.571 158.62C100.74 158.387 99.8459 158.664 99.3189 159.347C98.0812 160.951 96.104 164.391 96.0577 170.032C96.0474 171.286 97.0274 172.337 98.2764 172.451C100.435 172.648 102.629 172.875 104.138 173.037C105.317 173.163 106.4 173.703 107.23 174.55C108.628 175.977 111.155 178.067 113.958 178.075V178.077L113.967 178.076L113.975 178.077V178.075C116.779 178.067 119.306 175.977 120.704 174.55C121.534 173.703 122.616 173.163 123.796 173.037C125.305 172.875 127.499 172.648 129.658 172.451C130.907 172.337 131.887 171.286 131.876 170.032C131.83 164.391 129.853 160.951 128.615 159.347C128.088 158.664 127.194 158.387 126.363 158.62Z" fill="#282A42"/>
<path fill-rule="evenodd" clip-rule="evenodd" d="M94.0706 23.1142V59.6972C94.0706 61.7121 95.8606 63.1855 97.7474 62.7502C102.973 61.5443 108.4 60.9078 113.967 60.9078C119.534 60.9078 124.961 61.5443 130.186 62.7502C132.073 63.1855 133.863 61.7121 133.863 59.6972V23.1142C133.863 21.7535 133.017 20.563 131.782 20.1256C126.12 18.1217 120.147 17.0354 113.967 17.0354C107.787 17.0354 101.814 18.1217 96.1521 20.1256C94.9163 20.563 94.0706 21.7535 94.0706 23.1142Z" fill="white"/>
<path fill-rule="evenodd" clip-rule="evenodd" d="M60.6875 45.4289V71.1013C60.6875 74.0313 63.9738 75.7894 66.3864 74.1269C72.2736 70.07 78.7708 67.1271 85.7268 64.6652C87.1987 64.1443 88.1952 62.7689 88.1952 61.2075V28.493C88.1952 25.7385 85.2556 23.9573 82.8262 25.2554C74.5814 29.661 67.291 35.1247 61.3747 43.2785C60.9233 43.9005 60.6875 44.6603 60.6875 45.4289Z" fill="white"/>
<path fill-rule="evenodd" clip-rule="evenodd" d="M166.56 43.2785C160.643 35.1247 153.353 29.661 145.108 25.2554C142.679 23.9573 139.739 25.7385 139.739 28.493V61.2075C139.739 62.7689 140.735 64.1443 142.207 64.6652C149.163 67.1271 155.661 70.07 161.548 74.1269C163.96 75.7894 167.247 74.0313 167.247 71.1013V45.4289C167.247 44.6603 167.011 43.9005 166.56 43.2785Z" fill="white"/>
<path fill-rule="evenodd" clip-rule="evenodd" d="M113.967 35.8496C120.852 35.8496 127.521 36.9621 133.863 39.0353V23.1142C133.863 21.7535 133.017 20.563 131.782 20.1256C126.12 18.1217 120.147 17.0354 113.967 17.0354C107.787 17.0354 101.814 18.1217 96.1521 20.1256C94.9163 20.563 94.0706 21.7535 94.0706 23.1142V39.0353C100.413 36.9621 107.082 35.8496 113.967 35.8496Z" fill="white"/>
<path fill-rule="evenodd" clip-rule="evenodd" d="M88.1954 40.8191V28.308C88.1954 25.6328 85.4124 23.8615 82.9886 24.9936C75.0722 28.6912 68.0304 32.3901 62.2333 39.7226C61.222 41.0017 60.6877 42.5991 60.6877 44.2296V59.6976C68.5713 51.3978 77.9054 44.9174 88.1954 40.8191Z" fill="white"/>
<path fill-rule="evenodd" clip-rule="evenodd" d="M167.247 59.6976V44.2297C167.247 42.5991 166.712 41.0017 165.701 39.7226C159.904 32.3901 152.862 28.6912 144.946 24.9936C142.522 23.8615 139.739 25.6328 139.739 28.308L139.739 40.8191C150.029 44.9174 159.363 51.3978 167.247 59.6976Z" fill="white"/>
<path d="M31.2596 143.11C30.0645 133.921 29.7997 125.659 29.7997 125.659L22.4335 128.901C22.4335 128.901 20.7538 136.596 22.1525 148.668C25.0586 146.721 28.0965 144.866 31.2596 143.11Z" fill="white"/>
<path d="M205.781 148.668C207.18 136.597 205.501 128.901 205.501 128.901L198.134 125.66C198.134 125.66 197.869 133.922 196.674 143.11C199.837 144.866 202.875 146.722 205.781 148.668Z" fill="white"/>
<path d="M63.4384 150.501C59.529 149.955 55.4058 148.892 53.2479 146.856C52.8852 146.514 52.5436 146.131 52.2114 145.729L65.3144 109.729C69.6117 109.795 73.9094 109.86 78.2068 109.926L63.4384 150.501Z" fill="white"/>
<path d="M58.9175 109.632C58.469 109.625 58.0202 109.618 57.5717 109.612L57.3489 109.608L57.1392 109.681C47.6773 112.985 45.4711 127.712 48.5014 138.25L58.9175 109.632Z" fill="white"/>
<path d="M99.789 113.661C97.6658 111.425 94.8738 110.313 91.8205 110.134L91.7932 110.133L91.7664 110.132C89.3787 110.096 86.9911 110.06 84.6036 110.023L69.6807 151.023L69.7092 151.025C70.3406 151.045 70.963 151.056 71.5775 151.056C79.8027 151.056 86.5744 149.141 93.1143 143.588C95.8301 141.282 98.1493 138.596 100.008 135.561C102.148 132.065 103.418 127.919 103.413 123.81C103.408 120.146 102.362 116.37 99.789 113.661Z" fill="#282A42"/>
<path d="M174.687 146.856C171.251 150.099 162.828 150.874 158.226 151.024C157.594 151.045 156.972 151.056 156.357 151.056C153.577 151.056 150.964 150.83 148.469 150.325L163.248 109.72C165.62 109.684 167.992 109.648 170.364 109.612L170.586 109.608L170.796 109.681C183.435 114.094 183.13 138.891 174.687 146.856Z" fill="#282A42"/>
<path d="M127.983 135.645L137.275 110.115C136.907 110.121 136.538 110.126 136.169 110.132L136.142 110.132L136.115 110.134C133.061 110.313 130.269 111.425 128.146 113.661C125.573 116.37 124.527 120.146 124.522 123.81C124.517 127.918 125.787 132.065 127.927 135.56C127.945 135.589 127.966 135.616 127.983 135.645Z" fill="white"/>
<path d="M156.78 109.819C152.434 109.885 148.089 109.951 143.743 110.017L132.371 141.263C133.151 142.071 133.958 142.855 134.821 143.588C137.383 145.763 139.981 147.373 142.688 148.536L156.78 109.819Z" fill="white"/>
<path d="M75.4902 117.389L78.2067 109.926C73.9092 109.86 69.6116 109.795 65.3143 109.729L62.5979 117.193C66.8952 117.258 71.1929 117.323 75.4902 117.389Z" fill="white"/>
<path d="M95.4633 117.693L95.4937 117.694L95.5245 117.695C98.3217 117.859 100.916 118.732 103.079 120.399C102.597 117.905 101.562 115.528 99.7892 113.661C97.666 111.425 94.874 110.313 91.8208 110.134L91.7934 110.133L91.7666 110.132C89.379 110.096 86.9913 110.06 84.6038 110.023L81.8875 117.487C86.4127 117.555 90.938 117.624 95.4633 117.693Z" fill="#282A42"/>
<path d="M56.127 117.298L58.9173 109.632C58.4688 109.625 58.02 109.618 57.5715 109.612L57.3487 109.608L57.1391 109.681C50.8236 111.887 47.7556 119.184 47.3047 126.925C49.0532 122.442 51.9462 118.869 56.127 117.298Z" fill="white"/>
<path d="M171.044 117.106L171.295 117.102L171.532 117.185C175.88 118.703 178.863 122.365 180.648 126.969C180.207 119.211 177.124 111.891 170.796 109.681L170.586 109.608L170.364 109.612C167.992 109.648 165.62 109.684 163.248 109.72L160.501 117.266C164.015 117.213 167.53 117.159 171.044 117.106Z" fill="#282A42"/>
<path d="M154.033 117.365L156.779 109.819C152.434 109.885 148.089 109.951 143.743 110.017L140.997 117.564L154.033 117.365Z" fill="white"/>
<path d="M132.411 117.695L132.442 117.694L132.472 117.693C133.158 117.683 133.843 117.672 134.529 117.662L137.275 110.115C136.906 110.121 136.538 110.126 136.169 110.132L136.142 110.132L136.115 110.134C133.061 110.313 130.269 111.425 128.146 113.661C126.373 115.528 125.339 117.905 124.857 120.399C127.019 118.731 129.614 117.859 132.411 117.695Z" fill="white"/>
</svg>
