<svg width="971" height="256" viewBox="0 0 971 256" fill="none" xmlns="http://www.w3.org/2000/svg">
<g clip-path="url(#clip0_1529_6777)">
<path d="M672.628 80.4412H698.771V190.155H672.628V80.4412Z" fill="white"/>
<path d="M572.59 190.155V80.4412H623.381C646.984 80.4412 662.67 95.9478 662.67 119.792C662.67 142.906 646.984 158.411 623.381 158.411H598.732V190.155H572.59ZM598.732 132.811H623.082C631.149 132.811 636.527 127.399 636.527 119.354C636.527 111.308 631.149 106.041 623.082 106.041H598.732V132.811Z" fill="white"/>
<path d="M768.554 135.298C768.554 105.017 793.651 80.4412 824.573 80.4412C855.347 80.4412 880.443 105.017 880.443 135.298C880.443 165.579 855.347 190.155 824.573 190.155C793.651 190.155 768.554 165.579 768.554 135.298ZM824.573 164.556C841.006 164.556 854.301 151.39 854.301 135.298C854.301 119.207 841.006 106.188 824.573 106.188C808.14 106.188 794.696 119.207 794.696 135.298C794.696 151.39 808.141 164.556 824.573 164.556Z" fill="white"/>
<path d="M851.626 80.4412V80.4451C852.977 81.0897 854.293 81.7923 855.588 82.5281C865.888 87.8997 874.439 96.0825 880.164 106.041H911.105V190.155H937.248V106.041H971.756V80.4412H851.626Z" fill="white"/>
<path d="M769.987 164.556H734.872V80.4412H708.73V190.155H797.46C785.821 184.617 776.2 175.628 769.987 164.556Z" fill="white"/>
<path d="M308.912 190.009C286.953 190.009 265.74 178.599 265.59 155.924H289.641C294.272 166.165 302.488 169.822 309.808 169.822C324 169.822 334.457 155.779 307.717 148.025C288.147 142.32 265.591 134.567 265.591 111.308C265.591 90.5345 285.758 80.4412 306.373 80.4412C328.482 80.4412 351.039 91.8512 351.188 114.38H327.137C313.095 83.6592 271.267 111.893 308.464 121.841C328.631 127.399 351.188 135.005 351.188 159.143C351.188 179.916 329.677 190.009 308.912 190.009Z" fill="white"/>
<path d="M440.769 80.4412V106.041H387.289V122.425H431.418V148.025H387.289V164.556H440.769V190.155H361.147V80.4412H440.769Z" fill="white"/>
<path d="M453.5 138.519C458.718 136.957 464.115 135.683 470.996 134.389C472.975 134.016 474.963 133.665 476.941 133.32C477.056 131.568 477.328 129.804 477.783 128.044C480.953 115.8 491.678 107.388 503.848 106.247C504.146 104.303 504.45 102.346 504.776 100.398C505.915 93.6221 507.069 88.3069 508.521 83.162C508.782 82.2376 509.074 81.3369 509.355 80.4277C483.309 79.2176 459.097 96.0485 452.443 121.753C450.912 127.665 450.444 133.594 450.889 139.359C451.758 139.078 452.616 138.784 453.5 138.519Z" fill="white"/>
<path d="M530.164 88.5369C528.936 93.7415 527.365 98.9541 525.07 105.436C524.422 107.266 523.752 109.094 523.08 110.908C533.378 117.533 538.761 130.026 535.561 142.387C535.097 144.177 534.467 145.884 533.702 147.504C535.216 148.685 536.735 149.876 538.236 151.08C543.658 155.431 547.783 159.068 551.61 162.876C552.307 163.569 552.966 164.277 553.64 164.98C556.866 160.093 559.361 154.629 560.901 148.677C567.583 122.868 554.344 96.6721 530.773 85.688C530.573 86.637 530.388 87.584 530.164 88.5369Z" fill="white"/>
<path d="M536.04 178.542C532.063 174.914 528.237 170.975 523.635 165.77C522.366 164.334 521.108 162.879 519.861 161.428C513.733 164.414 506.543 165.365 499.403 163.592C492.2 161.804 486.272 157.549 482.305 151.986C480.442 152.704 478.566 153.422 476.687 154.116C470.126 156.539 464.847 158.218 459.57 159.558C458.671 159.787 457.777 159.977 456.881 160.185C463.965 173.744 476.729 184.373 492.979 188.407C509.113 192.412 525.434 189.038 538.228 180.461C537.498 179.824 536.761 179.201 536.04 178.542Z" fill="white"/>
<path d="M515.885 137.961C515.928 137.822 515.968 137.684 516.005 137.542C516.925 133.989 515.658 130.397 513.033 128.125C512.824 125.788 513.237 123.559 514.601 119.767C516.552 114.337 518.572 109.14 520.44 103.859C522.31 98.5789 524.03 93.2164 525.388 87.4576C526.745 81.6985 527.737 75.5407 528.153 68.6759C528.156 67.7412 527.749 67.3298 526.846 67.1056L524.43 66.506L522.013 65.906C521.112 65.6823 520.553 65.8538 520.102 66.6773C517.126 72.9064 515.005 78.784 513.396 84.4806C511.789 90.1777 510.692 95.6949 509.766 101.209C508.841 106.723 508.089 112.24 507.163 117.92C506.517 121.88 505.759 124.054 504.447 126.007C501.047 126.786 498.199 129.35 497.281 132.894C497.242 133.045 497.207 133.193 497.176 133.342C495.215 134.688 493.036 135.455 488.998 136.195C483.222 137.254 477.615 138.141 472.012 139.196C466.406 140.25 460.804 141.473 455.031 143.201C449.259 144.932 443.319 147.165 437.041 150.247C436.211 150.712 436.051 151.264 436.305 152.14L436.982 154.49L437.659 156.838C437.913 157.714 438.343 158.104 439.297 158.074C446.295 157.482 452.553 156.343 458.395 154.858C464.237 153.374 469.665 151.546 475.005 149.573C480.344 147.601 485.598 145.48 491.085 143.425C494.911 141.993 497.212 141.55 499.593 141.685C500.814 142.962 502.409 143.924 504.27 144.385C506.139 144.85 508.019 144.745 509.72 144.184C511.89 145.176 513.655 146.639 516.33 149.692C520.153 154.063 523.742 158.374 527.476 162.599C531.212 166.825 535.093 170.965 539.51 174.995C543.924 179.025 548.871 182.946 554.735 186.731C555.561 187.202 556.129 187.06 556.776 186.408L558.516 184.66L560.254 182.91C560.904 182.257 561.032 181.698 560.528 180.902C556.506 175.263 552.371 170.528 548.136 166.314C543.903 162.102 539.572 158.413 535.156 154.871C530.744 151.33 526.242 147.934 521.681 144.308C518.501 141.78 516.956 140.049 515.885 137.961Z" fill="white"/>
<path d="M105.148 10.9714C105.128 8.97153 105.127 8.97155 105.126 8.97156L105.121 8.97161L105.107 8.97179L105.06 8.97256C105.02 8.97327 104.962 8.97446 104.888 8.9764C104.739 8.98026 104.523 8.9871 104.244 8.99909C103.686 9.02307 102.875 9.06768 101.844 9.15041C99.7832 9.31582 96.8399 9.63386 93.2772 10.245C86.1581 11.4662 76.5298 13.8638 66.515 18.5772C46.5625 27.9677 25.1186 46.5506 18.9785 83.0301C14.9891 86.2863 12.3747 90.9085 11.7224 96.004L11.7224 96.0041C11.4019 98.509 11.4153 104.21 11.4946 109.101C11.5349 111.586 11.5939 113.924 11.6428 115.64C11.6603 116.253 11.6765 116.787 11.6901 117.22L1.58734 122.739L0.939136 123.093L0.676673 123.784L2.54614 124.494C0.676673 123.784 0.676272 123.785 0.675834 123.786L0.674772 123.789L0.671986 123.796L0.663815 123.818C0.657232 123.836 0.6484 123.86 0.637466 123.89C0.6156 123.95 0.585327 124.036 0.547832 124.146C0.472845 124.365 0.368941 124.682 0.245605 125.091C-0.00103465 125.909 -0.325602 127.097 -0.652043 128.618C-1.30479 131.658 -1.96612 136.031 -2.02483 141.429C-2.14238 152.237 0.157421 167.124 9.73177 183.596L10.1661 184.343L11.008 184.539L26.4869 188.137L26.8425 190.383C26.8433 190.399 26.8442 190.416 26.8452 190.434C26.8516 190.552 26.8628 190.715 26.8825 190.919C26.922 191.326 26.9956 191.897 27.1326 192.603C27.4067 194.015 27.9355 195.969 28.956 198.223C31.0056 202.75 35.0084 208.417 42.7649 213.311C46.9754 215.968 51.007 219.439 55.0249 222.898C56.4899 224.159 57.953 225.419 59.4224 226.637C69.4573 234.956 87.0416 247 105.148 247C123.122 247 140.579 235.132 150.647 226.825C151.942 225.756 153.244 224.66 154.552 223.559C159.101 219.73 163.728 215.835 168.457 212.762C175.908 207.922 179.973 202.42 182.172 198.062C183.268 195.889 183.895 194.011 184.25 192.656C184.427 191.979 184.537 191.431 184.603 191.041C184.636 190.846 184.658 190.691 184.673 190.578C184.676 190.55 184.68 190.525 184.682 190.503C184.685 190.483 184.687 190.466 184.688 190.45L185.059 188.112L199.323 184.531L200.141 184.325L200.565 183.596C210.139 167.124 212.439 152.237 212.322 141.429C212.263 136.031 211.602 131.658 210.949 128.618C210.622 127.097 210.298 125.909 210.051 125.091C209.928 124.682 209.824 124.365 209.749 124.146C209.711 124.036 209.681 123.95 209.659 123.89C209.648 123.86 209.64 123.836 209.633 123.818L209.625 123.796L209.622 123.789L209.621 123.786C209.62 123.785 209.62 123.784 207.751 124.494L209.62 123.784L209.358 123.093L208.709 122.739L198.607 117.22C198.62 116.787 198.636 116.253 198.654 115.64C198.703 113.924 198.762 111.586 198.802 109.101C198.882 104.21 198.895 98.509 198.574 96.0041L198.574 96.004C197.922 90.9085 195.308 86.2863 191.318 83.0301C185.178 46.5506 163.734 27.9677 143.782 18.5772C133.767 13.8638 124.139 11.4662 117.02 10.245C113.457 9.63386 110.514 9.31582 108.453 9.15041C107.422 9.06768 106.611 9.02307 106.053 8.99909C105.774 8.9871 105.558 8.98026 105.409 8.9764C105.335 8.97446 105.277 8.97327 105.237 8.97256L105.189 8.97179L105.176 8.97161L105.171 8.97156C105.17 8.97155 105.168 8.97153 105.148 10.9714ZM105.148 10.9714L105.128 8.97153L105.148 8.97134L105.168 8.97153L105.148 10.9714Z" fill="#282A42" stroke="white" stroke-width="4"/>
<path fill-rule="evenodd" clip-rule="evenodd" d="M11.676 128.901L19.1982 125.66C19.1982 125.66 19.8663 146.165 23.8702 158.5C26.8132 167.567 29.4591 180.127 29.4591 180.127L19.8663 177.637C6.90333 150.246 11.676 128.901 11.676 128.901ZM198.621 128.901L191.099 125.66C191.099 125.66 190.431 146.165 186.427 158.5C183.484 167.567 180.838 180.127 180.838 180.127L190.431 177.637C203.394 150.246 198.621 128.901 198.621 128.901Z" fill="white"/>
<path d="M39.501 124.159C37.8626 139.023 38.3684 146.986 38.3684 146.986L41.0448 166.052C41.0448 166.052 45.0597 192.426 48.4054 200.369C51.7511 208.313 66.1376 221.341 79.5203 228.967C82.416 230.618 85.2585 232.091 87.9353 233.388C98.7665 238.634 111.53 238.634 122.361 233.388C125.038 232.091 127.881 230.618 130.776 228.967C144.159 221.341 158.546 208.313 161.891 200.369C165.237 192.426 169.252 166.052 169.252 166.052L171.928 146.986C171.928 146.986 172.434 139.023 170.796 124.159H39.501Z" fill="white"/>
<path d="M70.5216 223.137L69.0649 219.92C69.0649 219.92 56.3482 204.105 54.4807 199.671C53.2913 196.847 47.0263 184.445 44.729 175.81C43.9449 172.863 42.68 170.081 41.3374 167.329C40.9714 166.579 41.0532 166.052 41.0532 166.052C41.0532 166.052 45.0681 192.425 48.4138 200.369C51.0099 206.533 60.2579 215.749 70.5216 223.137Z" fill="white"/>
<path d="M139.773 223.137L141.23 219.92C141.23 219.92 153.947 204.105 155.814 199.671C156.995 196.866 163.231 184.613 165.54 175.986C166.343 172.983 167.624 170.144 168.972 167.329C169.331 166.579 169.242 166.052 169.242 166.052C169.242 166.052 165.227 192.425 161.881 200.369C159.285 206.533 150.037 215.749 139.773 223.137Z" fill="white"/>
<path d="M118.795 166.261C115.858 164.712 112.749 164.546 110.158 167.146C107.567 169.745 105.148 170.022 105.148 170.022C105.148 170.022 102.73 169.745 100.139 167.146C97.5477 164.546 94.4384 164.712 91.5018 166.261L90.9287 170.077L105.148 173.649L119.368 170.077L118.795 166.261Z" fill="white"/>
<path d="M86.2031 210.676C86.2031 210.676 90.4371 227.799 105.444 227.799C120.451 227.799 124.093 210.676 124.093 210.676C124.093 210.676 107.51 231.345 86.2031 210.676Z" fill="white"/>
<path d="M137.458 182.655H72.8386V187.585H137.458V182.655Z" fill="white"/>
<path d="M70.3442 184.65C72.9308 194.658 89.3294 210.676 105.148 210.676C120.967 210.676 137.366 194.658 139.952 184.65C132.691 185.048 77.6051 185.048 70.3442 184.65Z" fill="#282A42"/>
<path d="M75.951 180.649C73.7894 180.924 71.8613 181.848 70.4868 182.691C68.977 183.618 68.1166 185.28 68.1993 187.023C68.3069 189.297 68.9713 192.635 71.5062 195.727C70.4875 189.659 74.2298 185.14 76.918 182.754C77.8019 181.969 77.1344 180.498 75.951 180.649Z" fill="#282A42"/>
<path d="M142.098 187.023C142.18 185.28 141.32 183.618 139.81 182.692C138.436 181.848 136.507 180.924 134.346 180.649C133.163 180.498 132.495 181.969 133.379 182.754C136.067 185.141 139.809 189.659 138.791 195.727C141.325 192.635 141.99 189.297 142.098 187.023Z" fill="#282A42"/>
<path d="M79.439 189.521C79.439 189.521 88.511 196.052 105.148 196.052C121.785 196.052 130.858 189.521 130.858 189.521H79.439Z" fill="white"/>
<path d="M105.148 215.772C91.2498 215.772 86.2031 210.676 86.2031 210.676C86.2031 210.676 90.9612 222.516 105.148 222.516C119.335 222.516 124.093 210.676 124.093 210.676C124.093 210.676 119.047 215.772 105.148 215.772Z" fill="#282A42"/>
<path d="M155.053 83.8346C137.261 71.3593 117.122 69.2489 105.148 69.3073C93.1742 69.2489 73.0354 71.3593 55.2439 83.8346C30.7741 100.992 31.3756 119.157 31.8566 123.195C32.8575 122.004 33.9861 120.66 34.9668 119.49C35.2642 113.001 38.3976 99.4856 57.1472 86.3388C74.0319 74.4998 93.5929 72.4575 105.148 72.4682C116.704 72.4575 136.265 74.4998 153.15 86.3388C171.899 99.4856 175.032 113.001 175.33 119.49C176.311 120.66 177.439 122.004 178.44 123.195C178.921 119.157 179.523 100.992 155.053 83.8346Z" fill="white"/>
<path d="M105.148 143.507C141.441 143.507 170.862 130.76 170.862 115.035C170.862 99.3098 141.441 86.5623 105.148 86.5623C68.8559 86.5623 39.4351 99.3098 39.4351 115.035C39.4351 130.76 68.8559 143.507 105.148 143.507Z" fill="white"/>
<path d="M105.148 146.352C133.659 146.352 156.772 133.875 156.772 118.485C156.772 103.094 133.659 90.6169 105.148 90.6169C76.6377 90.6169 53.5251 103.094 53.5251 118.485C53.5251 133.875 76.6377 146.352 105.148 146.352Z" fill="white"/>
<path d="M186.193 118.866C183.817 107.964 177.768 100.336 169.155 97.3889L168.644 97.2132C167.827 96.9328 166.967 96.7987 166.1 96.8086L152.421 97.0048C143.766 97.1264 135.104 97.2512 126.397 97.3979H83.7494C75.1232 97.2527 66.4982 97.126 57.8719 97.0048L44.1966 96.8086C43.3487 96.8104 42.471 96.9333 41.6531 97.2132L41.1496 97.3859C32.5326 100.332 26.4794 107.961 24.1033 118.866C21.4749 130.93 23.7637 147.715 33.225 156.456C38.0812 160.942 46.8106 163.418 59.1705 163.815C60.0183 163.842 60.8518 163.856 61.6734 163.856C74.74 163.856 84.7466 160.411 93.8503 152.84C93.8503 152.84 99.5121 147.659 105.149 147.659C110.785 147.659 116.446 152.839 116.446 152.839C125.552 160.412 135.558 163.856 148.626 163.856C149.447 163.856 150.282 163.842 151.127 163.815C163.487 163.418 172.217 160.942 177.074 156.455C186.533 147.714 188.822 130.929 186.193 118.866Z" fill="#282A42"/>
<path d="M182.66 110.199H27.637C19.9561 110.199 13.7295 116.296 13.7295 123.818V123.818C13.7295 131.339 19.9561 137.437 27.637 137.437H182.66C190.341 137.437 196.567 131.339 196.567 123.818C196.567 116.296 190.341 110.199 182.66 110.199Z" fill="#282A42"/>
<path fill-rule="evenodd" clip-rule="evenodd" d="M86.5157 104.586L86.4524 104.585C72.4716 104.341 58.4892 104.166 44.5076 103.96L43.9647 103.952L43.4521 104.127C26.8644 109.799 26.9115 140.891 38.1373 151.263C42.7281 155.504 53.2409 156.48 59.3221 156.675C70.8014 157.042 80.1864 154.771 89.0641 147.389C92.5092 144.524 95.4717 141.165 97.8317 137.39C100.604 132.956 102.238 127.71 102.231 122.499C102.225 117.711 100.797 112.822 97.369 109.287C94.4974 106.326 90.7113 104.827 86.5787 104.59L86.5157 104.586Z" fill="white"/>
<path fill-rule="evenodd" clip-rule="evenodd" d="M123.782 104.586L123.845 104.585C137.826 104.341 151.808 104.166 165.79 103.96L166.332 103.952L166.845 104.127C183.433 109.799 183.386 140.891 172.161 151.263C167.569 155.504 157.057 156.48 150.975 156.675C139.496 157.042 130.111 154.771 121.234 147.389C117.789 144.524 114.826 141.164 112.466 137.39C109.693 132.956 108.059 127.71 108.067 122.499C108.072 117.711 109.5 112.822 112.929 109.287C115.8 106.326 119.586 104.827 123.719 104.59L123.782 104.586Z" fill="white"/>
<path d="M85.5061 106.569L85.4733 106.568L85.4411 106.567C71.747 106.363 58.0533 106.159 44.3595 105.955L44.0919 105.951L43.8401 106.037C28.6558 111.229 29.0223 140.402 39.1652 149.772C43.2938 153.587 53.4127 154.499 58.9419 154.676C59.7004 154.7 60.448 154.713 61.1864 154.713C71.0681 154.713 79.2036 152.461 87.0604 145.927C90.3231 143.214 93.1095 140.055 95.3429 136.483C97.9136 132.371 99.4399 127.493 99.4336 122.658C99.4278 118.349 98.1709 113.906 95.0795 110.718C92.5287 108.088 89.1745 106.78 85.5061 106.569Z" fill="#282A42"/>
<path d="M166.458 106.037L166.206 105.951L165.939 105.955C152.245 106.159 138.551 106.363 124.857 106.567L124.825 106.568L124.792 106.569C121.124 106.78 117.769 108.088 115.219 110.718C112.127 113.906 110.87 118.349 110.865 122.658C110.858 127.493 112.384 132.371 114.955 136.483C117.189 140.055 119.975 143.214 123.238 145.927C131.094 152.461 139.23 154.713 149.112 154.713C149.85 154.713 150.598 154.7 151.356 154.676C156.885 154.499 167.004 153.587 171.133 149.772C181.276 140.402 181.642 111.229 166.458 106.037Z" fill="#282A42"/>
<path d="M117.807 158.62C116.421 159.002 115.814 160.552 116.529 161.776C117.613 163.634 118.458 166.268 118.458 168.61C117.296 168.51 113.977 169.465 113.977 169.465C113.977 169.465 114.226 167.507 115.637 166.805C113.728 166.203 111.488 168.61 111.488 168.61C111.488 168.61 109.085 172.215 105.148 172.22C101.212 172.215 98.8089 168.61 98.8089 168.61C98.8089 168.61 96.5687 166.203 94.6602 166.805C96.0706 167.507 96.3196 169.465 96.3196 169.465C96.3196 169.465 93.0007 168.51 91.8391 168.61C91.8391 166.268 92.6834 163.634 93.7677 161.776C94.4823 160.552 93.8758 159.002 92.4896 158.62C91.6416 158.387 90.7281 158.664 90.19 159.347C88.926 160.951 86.907 164.391 86.8597 170.032C86.8492 171.286 87.85 172.337 89.1254 172.451C91.33 172.648 93.5698 172.875 95.1114 173.037C96.3155 173.163 97.4209 173.703 98.2685 174.55C99.6965 175.977 102.277 178.067 105.14 178.075V178.077L105.148 178.076L105.157 178.077V178.075C108.02 178.067 110.6 175.977 112.028 174.55C112.876 173.703 113.981 173.163 115.185 173.037C116.727 172.875 118.967 172.648 121.171 172.451C122.447 172.337 123.448 171.286 123.437 170.032C123.39 164.391 121.371 160.951 120.107 159.347C119.569 158.664 118.655 158.387 117.807 158.62Z" fill="#282A42"/>
<path fill-rule="evenodd" clip-rule="evenodd" d="M84.8306 23.1142V59.6972C84.8306 61.7121 86.6586 63.1855 88.5853 62.7502C93.9218 61.5443 99.4632 60.9078 105.148 60.9078C110.834 60.9078 116.375 61.5443 121.712 62.7502C123.638 63.1855 125.466 61.7121 125.466 59.6972V23.1142C125.466 21.7535 124.603 20.563 123.341 20.1256C117.559 18.1217 111.46 17.0354 105.148 17.0354C98.8372 17.0354 92.7377 18.1217 86.9562 20.1256C85.6943 20.563 84.8306 21.7535 84.8306 23.1142Z" fill="white"/>
<path fill-rule="evenodd" clip-rule="evenodd" d="M50.7402 45.4289V71.1013C50.7402 74.0313 54.0961 75.7894 56.5599 74.1269C62.5717 70.07 69.2066 67.1271 76.31 64.6652C77.813 64.1443 78.8306 62.7689 78.8306 61.2075V28.493C78.8306 25.7385 75.8288 23.9573 73.348 25.2554C64.9285 29.661 57.4836 35.1247 51.4419 43.2785C50.981 43.9005 50.7402 44.6603 50.7402 45.4289Z" fill="white"/>
<path fill-rule="evenodd" clip-rule="evenodd" d="M158.855 43.2785C152.813 35.1247 145.368 29.661 136.949 25.2554C134.468 23.9573 131.466 25.7385 131.466 28.493V61.2075C131.466 62.7689 132.484 64.1443 133.987 64.6652C141.09 67.1271 147.725 70.07 153.737 74.1269C156.201 75.7894 159.557 74.0313 159.557 71.1013V45.4289C159.557 44.6603 159.316 43.9005 158.855 43.2785Z" fill="white"/>
<path fill-rule="evenodd" clip-rule="evenodd" d="M105.148 35.8496C112.179 35.8496 118.989 36.9621 125.466 39.0353V23.1142C125.466 21.7535 124.603 20.563 123.341 20.1256C117.559 18.1217 111.46 17.0354 105.148 17.0354C98.8372 17.0354 92.7377 18.1217 86.9562 20.1256C85.6943 20.563 84.8306 21.7535 84.8306 23.1142V39.0353C91.3074 36.9621 98.1175 35.8496 105.148 35.8496Z" fill="white"/>
<path fill-rule="evenodd" clip-rule="evenodd" d="M78.8306 40.8191V28.308C78.8306 25.6328 75.9887 23.8615 73.5135 24.9936C65.4294 28.6912 58.2385 32.3901 52.3185 39.7226C51.2858 41.0017 50.7402 42.5991 50.7402 44.2296V59.6976C58.7908 51.3978 68.3227 44.9174 78.8306 40.8191Z" fill="white"/>
<path fill-rule="evenodd" clip-rule="evenodd" d="M159.557 59.6976V44.2297C159.557 42.5991 159.011 41.0017 157.978 39.7226C152.058 32.3901 144.868 28.6912 136.783 24.9936C134.308 23.8615 131.466 25.6328 131.466 28.308L131.466 40.8191C141.974 44.9174 151.506 51.3978 159.557 59.6976Z" fill="white"/>
<path d="M20.689 143.11C19.4685 133.921 19.1981 125.659 19.1981 125.659L11.6758 128.901C11.6758 128.901 9.9606 136.596 11.3889 148.668C14.3566 146.721 17.4589 144.866 20.689 143.11Z" fill="white"/>
<path d="M198.908 148.668C200.336 136.597 198.621 128.901 198.621 128.901L191.099 125.66C191.099 125.66 190.828 133.922 189.608 143.11C192.838 144.866 195.94 146.722 198.908 148.668Z" fill="white"/>
<path d="M53.5492 150.501C49.5571 149.955 45.3465 148.892 43.1429 146.856C42.7726 146.514 42.4237 146.131 42.0845 145.729L55.465 109.729C59.8534 109.795 64.242 109.86 68.6306 109.926L53.5492 150.501Z" fill="white"/>
<path d="M48.9326 109.632C48.4746 109.625 48.0163 109.618 47.5583 109.612L47.3308 109.608L47.1167 109.681C37.4544 112.985 35.2014 127.712 38.2959 138.25L48.9326 109.632Z" fill="white"/>
<path d="M90.67 113.661C88.5018 111.425 85.6507 110.313 82.5327 110.134L82.5048 110.133L82.4774 110.132C80.0392 110.096 77.6009 110.06 75.1629 110.023L59.9238 151.023L59.953 151.025C60.5978 151.045 61.2333 151.056 61.8609 151.056C70.2603 151.056 77.1754 149.141 83.8539 143.588C86.6272 141.282 88.9955 138.596 90.894 135.561C93.079 132.065 94.3763 127.919 94.371 123.81C94.366 120.146 93.2977 116.37 90.67 113.661Z" fill="#282A42"/>
<path d="M167.155 146.856C163.646 150.099 155.045 150.874 150.345 151.024C149.7 151.045 149.065 151.056 148.437 151.056C145.597 151.056 142.93 150.83 140.381 150.325L155.473 109.72C157.895 109.684 160.318 109.648 162.74 109.612L162.967 109.608L163.181 109.681C176.088 114.094 175.776 138.891 167.155 146.856Z" fill="#282A42"/>
<path d="M119.461 135.645L128.95 110.115C128.574 110.121 128.197 110.126 127.821 110.132L127.793 110.132L127.765 110.134C124.647 110.313 121.796 111.425 119.628 113.661C117 116.37 115.932 120.146 115.927 123.81C115.921 127.918 117.219 132.065 119.404 135.56C119.422 135.589 119.443 135.616 119.461 135.645Z" fill="white"/>
<path d="M148.868 109.819C144.43 109.885 139.993 109.951 135.555 110.017L123.942 141.263C124.739 142.071 125.563 142.855 126.444 143.588C129.06 145.763 131.714 147.373 134.477 148.536L148.868 109.819Z" fill="white"/>
<path d="M65.8565 117.389L68.6306 109.926C64.2421 109.86 59.8534 109.795 55.4651 109.729L52.6912 117.193C57.0795 117.258 61.4682 117.323 65.8565 117.389Z" fill="white"/>
<path d="M86.2526 117.693L86.2836 117.694L86.3151 117.695C89.1715 117.859 91.8213 118.732 94.0291 120.399C93.5371 117.905 92.4809 115.528 90.6702 113.661C88.502 111.425 85.6509 110.313 82.5329 110.134L82.5049 110.133L82.4776 110.132C80.0394 110.096 77.6011 110.06 75.1631 110.023L72.3892 117.487C77.0103 117.555 81.6315 117.624 86.2526 117.693Z" fill="#282A42"/>
<path d="M46.0829 117.298L48.9324 109.632C48.4744 109.625 48.0161 109.618 47.558 109.612L47.3306 109.608L47.1164 109.681C40.6672 111.887 37.5342 119.184 37.0737 126.925C38.8593 122.442 41.8136 118.869 46.0829 117.298Z" fill="white"/>
<path d="M163.434 117.106L163.691 117.102L163.933 117.185C168.372 118.703 171.419 122.365 173.242 126.969C172.791 119.211 169.643 111.891 163.181 109.681L162.967 109.608L162.74 109.612C160.317 109.648 157.895 109.684 155.473 109.72L152.668 117.266C156.257 117.213 159.846 117.159 163.434 117.106Z" fill="#282A42"/>
<path d="M146.063 117.365L148.868 109.819C144.43 109.885 139.993 109.951 135.555 110.017L132.75 117.564L146.063 117.365Z" fill="white"/>
<path d="M123.983 117.695L124.014 117.694L124.045 117.693C124.745 117.683 125.445 117.672 126.145 117.662L128.95 110.115C128.574 110.121 128.197 110.126 127.82 110.132L127.793 110.132L127.765 110.134C124.647 110.313 121.796 111.425 119.628 113.661C117.817 115.528 116.761 117.905 116.269 120.399C118.477 118.731 121.126 117.859 123.983 117.695Z" fill="white"/>
</g>
<defs>
<clipPath id="clip0_1529_6777">
<rect width="971" height="256" fill="white"/>
</clipPath>
</defs>
</svg>
